<?xml version="1.0" encoding="utf-8" standalone="no"?>
<!DOCTYPE svg PUBLIC "-//W3C//DTD SVG 1.1//EN"
  "http://www.w3.org/Graphics/SVG/1.1/DTD/svg11.dtd">
<svg xmlns:xlink="http://www.w3.org/1999/xlink" width="1008pt" height="576pt" viewBox="0 0 1008 576" xmlns="http://www.w3.org/2000/svg" version="1.1">
 <metadata>
  <rdf:RDF xmlns:dc="http://purl.org/dc/elements/1.1/" xmlns:cc="http://creativecommons.org/ns#" xmlns:rdf="http://www.w3.org/1999/02/22-rdf-syntax-ns#">
   <cc:Work>
    <dc:type rdf:resource="http://purl.org/dc/dcmitype/StillImage"/>
    <dc:date>2026-02-04T09:01:13.485593</dc:date>
    <dc:format>image/svg+xml</dc:format>
    <dc:creator>
     <cc:Agent>
      <dc:title>Matplotlib v3.10.8, https://matplotlib.org/</dc:title>
     </cc:Agent>
    </dc:creator>
   </cc:Work>
  </rdf:RDF>
 </metadata>
 <defs>
  <style type="text/css">*{stroke-linejoin: round; stroke-linecap: butt}</style>
 </defs>
 <g id="figure_1">
  <g id="patch_1">
   <path d="M 0 576
L 1008 576
L 1008 0
L 0 0
z
" style="fill: #ffffff"/>
  </g>
  <g id="axes_1">
   <g id="patch_2">
    <path d="M 48.206158 534.04
L 997.2 534.04
L 997.2 26.88
L 48.206158 26.88
z
" style="fill: #ffffff"/>
   </g>
   <g id="matplotlib.axis_1">
    <g id="xtick_1">
     <g id="line2d_1">
      <path d="M 163.235715 534.04
L 163.235715 26.88
" clip-path="url(#pb81340c524)" style="fill: none; stroke: #cccccc; stroke-opacity: 0.3; stroke-width: 0.8; stroke-linecap: round"/>
     </g>
     <g id="text_1">
      <!-- 7.5 -->
      <g style="fill: #262626" transform="translate(156.285715 548.197812) scale(0.1 -0.1)">
       <defs>
        <path id="ArialMT-37" d="M 303 3981
L 303 4522
L 3269 4522
L 3269 4084
Q 2831 3619 2401 2847
Q 1972 2075 1738 1259
Q 1569 684 1522 0
L 944 0
Q 953 541 1156 1306
Q 1359 2072 1739 2783
Q 2119 3494 2547 3981
L 303 3981
z
" transform="scale(0.015625)"/>
        <path id="ArialMT-2e" d="M 581 0
L 581 641
L 1222 641
L 1222 0
L 581 0
z
" transform="scale(0.015625)"/>
        <path id="ArialMT-35" d="M 266 1200
L 856 1250
Q 922 819 1161 601
Q 1400 384 1738 384
Q 2144 384 2425 690
Q 2706 997 2706 1503
Q 2706 1984 2436 2262
Q 2166 2541 1728 2541
Q 1456 2541 1237 2417
Q 1019 2294 894 2097
L 366 2166
L 809 4519
L 3088 4519
L 3088 3981
L 1259 3981
L 1013 2750
Q 1425 3038 1878 3038
Q 2478 3038 2890 2622
Q 3303 2206 3303 1553
Q 3303 931 2941 478
Q 2500 -78 1738 -78
Q 1113 -78 717 272
Q 322 622 266 1200
z
" transform="scale(0.015625)"/>
       </defs>
       <use xlink:href="#ArialMT-37"/>
       <use xlink:href="#ArialMT-2e" transform="translate(55.615234 0)"/>
       <use xlink:href="#ArialMT-35" transform="translate(83.398438 0)"/>
      </g>
     </g>
    </g>
    <g id="xtick_2">
     <g id="line2d_2">
      <path d="M 283.05817 534.04
L 283.05817 26.88
" clip-path="url(#pb81340c524)" style="fill: none; stroke: #cccccc; stroke-opacity: 0.3; stroke-width: 0.8; stroke-linecap: round"/>
     </g>
     <g id="text_2">
      <!-- 10.0 -->
      <g style="fill: #262626" transform="translate(273.327701 548.197812) scale(0.1 -0.1)">
       <defs>
        <path id="ArialMT-31" d="M 2384 0
L 1822 0
L 1822 3584
Q 1619 3391 1289 3197
Q 959 3003 697 2906
L 697 3450
Q 1169 3672 1522 3987
Q 1875 4303 2022 4600
L 2384 4600
L 2384 0
z
" transform="scale(0.015625)"/>
        <path id="ArialMT-30" d="M 266 2259
Q 266 3072 433 3567
Q 600 4063 929 4331
Q 1259 4600 1759 4600
Q 2128 4600 2406 4451
Q 2684 4303 2865 4023
Q 3047 3744 3150 3342
Q 3253 2941 3253 2259
Q 3253 1453 3087 958
Q 2922 463 2592 192
Q 2263 -78 1759 -78
Q 1097 -78 719 397
Q 266 969 266 2259
z
M 844 2259
Q 844 1131 1108 757
Q 1372 384 1759 384
Q 2147 384 2411 759
Q 2675 1134 2675 2259
Q 2675 3391 2411 3762
Q 2147 4134 1753 4134
Q 1366 4134 1134 3806
Q 844 3388 844 2259
z
" transform="scale(0.015625)"/>
       </defs>
       <use xlink:href="#ArialMT-31"/>
       <use xlink:href="#ArialMT-30" transform="translate(55.615234 0)"/>
       <use xlink:href="#ArialMT-2e" transform="translate(111.230469 0)"/>
       <use xlink:href="#ArialMT-30" transform="translate(139.013672 0)"/>
      </g>
     </g>
    </g>
    <g id="xtick_3">
     <g id="line2d_3">
      <path d="M 402.880624 534.04
L 402.880624 26.88
" clip-path="url(#pb81340c524)" style="fill: none; stroke: #cccccc; stroke-opacity: 0.3; stroke-width: 0.8; stroke-linecap: round"/>
     </g>
     <g id="text_3">
      <!-- 12.5 -->
      <g style="fill: #262626" transform="translate(393.150156 548.197812) scale(0.1 -0.1)">
       <defs>
        <path id="ArialMT-32" d="M 3222 541
L 3222 0
L 194 0
Q 188 203 259 391
Q 375 700 629 1000
Q 884 1300 1366 1694
Q 2113 2306 2375 2664
Q 2638 3022 2638 3341
Q 2638 3675 2398 3904
Q 2159 4134 1775 4134
Q 1369 4134 1125 3890
Q 881 3647 878 3216
L 300 3275
Q 359 3922 746 4261
Q 1134 4600 1788 4600
Q 2447 4600 2831 4234
Q 3216 3869 3216 3328
Q 3216 3053 3103 2787
Q 2991 2522 2730 2228
Q 2469 1934 1863 1422
Q 1356 997 1212 845
Q 1069 694 975 541
L 3222 541
z
" transform="scale(0.015625)"/>
       </defs>
       <use xlink:href="#ArialMT-31"/>
       <use xlink:href="#ArialMT-32" transform="translate(55.615234 0)"/>
       <use xlink:href="#ArialMT-2e" transform="translate(111.230469 0)"/>
       <use xlink:href="#ArialMT-35" transform="translate(139.013672 0)"/>
      </g>
     </g>
    </g>
    <g id="xtick_4">
     <g id="line2d_4">
      <path d="M 522.703079 534.04
L 522.703079 26.88
" clip-path="url(#pb81340c524)" style="fill: none; stroke: #cccccc; stroke-opacity: 0.3; stroke-width: 0.8; stroke-linecap: round"/>
     </g>
     <g id="text_4">
      <!-- 15.0 -->
      <g style="fill: #262626" transform="translate(512.97261 548.197812) scale(0.1 -0.1)">
       <use xlink:href="#ArialMT-31"/>
       <use xlink:href="#ArialMT-35" transform="translate(55.615234 0)"/>
       <use xlink:href="#ArialMT-2e" transform="translate(111.230469 0)"/>
       <use xlink:href="#ArialMT-30" transform="translate(139.013672 0)"/>
      </g>
     </g>
    </g>
    <g id="xtick_5">
     <g id="line2d_5">
      <path d="M 642.525534 534.04
L 642.525534 26.88
" clip-path="url(#pb81340c524)" style="fill: none; stroke: #cccccc; stroke-opacity: 0.3; stroke-width: 0.8; stroke-linecap: round"/>
     </g>
     <g id="text_5">
      <!-- 17.5 -->
      <g style="fill: #262626" transform="translate(632.795065 548.197812) scale(0.1 -0.1)">
       <use xlink:href="#ArialMT-31"/>
       <use xlink:href="#ArialMT-37" transform="translate(55.615234 0)"/>
       <use xlink:href="#ArialMT-2e" transform="translate(111.230469 0)"/>
       <use xlink:href="#ArialMT-35" transform="translate(139.013672 0)"/>
      </g>
     </g>
    </g>
    <g id="xtick_6">
     <g id="line2d_6">
      <path d="M 762.347989 534.04
L 762.347989 26.88
" clip-path="url(#pb81340c524)" style="fill: none; stroke: #cccccc; stroke-opacity: 0.3; stroke-width: 0.8; stroke-linecap: round"/>
     </g>
     <g id="text_6">
      <!-- 20.0 -->
      <g style="fill: #262626" transform="translate(752.61752 548.197812) scale(0.1 -0.1)">
       <use xlink:href="#ArialMT-32"/>
       <use xlink:href="#ArialMT-30" transform="translate(55.615234 0)"/>
       <use xlink:href="#ArialMT-2e" transform="translate(111.230469 0)"/>
       <use xlink:href="#ArialMT-30" transform="translate(139.013672 0)"/>
      </g>
     </g>
    </g>
    <g id="xtick_7">
     <g id="line2d_7">
      <path d="M 882.170443 534.04
L 882.170443 26.88
" clip-path="url(#pb81340c524)" style="fill: none; stroke: #cccccc; stroke-opacity: 0.3; stroke-width: 0.8; stroke-linecap: round"/>
     </g>
     <g id="text_7">
      <!-- 22.5 -->
      <g style="fill: #262626" transform="translate(872.439975 548.197812) scale(0.1 -0.1)">
       <use xlink:href="#ArialMT-32"/>
       <use xlink:href="#ArialMT-32" transform="translate(55.615234 0)"/>
       <use xlink:href="#ArialMT-2e" transform="translate(111.230469 0)"/>
       <use xlink:href="#ArialMT-35" transform="translate(139.013672 0)"/>
      </g>
     </g>
    </g>
    <g id="text_8">
     <!-- Number of edges -->
     <g style="fill: #262626" transform="translate(481.865579 561.465) scale(0.1 -0.1)">
      <defs>
       <path id="Arial-BoldMT-4e" d="M 475 0
L 475 4581
L 1375 4581
L 3250 1522
L 3250 4581
L 4109 4581
L 4109 0
L 3181 0
L 1334 2988
L 1334 0
L 475 0
z
" transform="scale(0.015625)"/>
       <path id="Arial-BoldMT-75" d="M 2644 0
L 2644 497
Q 2463 231 2167 78
Q 1872 -75 1544 -75
Q 1209 -75 943 72
Q 678 219 559 484
Q 441 750 441 1219
L 441 3319
L 1319 3319
L 1319 1794
Q 1319 1094 1367 936
Q 1416 778 1544 686
Q 1672 594 1869 594
Q 2094 594 2272 717
Q 2450 841 2515 1023
Q 2581 1206 2581 1919
L 2581 3319
L 3459 3319
L 3459 0
L 2644 0
z
" transform="scale(0.015625)"/>
       <path id="Arial-BoldMT-6d" d="M 394 3319
L 1203 3319
L 1203 2866
Q 1638 3394 2238 3394
Q 2556 3394 2790 3262
Q 3025 3131 3175 2866
Q 3394 3131 3647 3262
Q 3900 3394 4188 3394
Q 4553 3394 4806 3245
Q 5059 3097 5184 2809
Q 5275 2597 5275 2122
L 5275 0
L 4397 0
L 4397 1897
Q 4397 2391 4306 2534
Q 4184 2722 3931 2722
Q 3747 2722 3584 2609
Q 3422 2497 3350 2280
Q 3278 2063 3278 1594
L 3278 0
L 2400 0
L 2400 1819
Q 2400 2303 2353 2443
Q 2306 2584 2207 2653
Q 2109 2722 1941 2722
Q 1738 2722 1575 2612
Q 1413 2503 1342 2297
Q 1272 2091 1272 1613
L 1272 0
L 394 0
L 394 3319
z
" transform="scale(0.015625)"/>
       <path id="Arial-BoldMT-62" d="M 422 0
L 422 4581
L 1300 4581
L 1300 2931
Q 1706 3394 2263 3394
Q 2869 3394 3266 2955
Q 3663 2516 3663 1694
Q 3663 844 3258 384
Q 2853 -75 2275 -75
Q 1991 -75 1714 67
Q 1438 209 1238 488
L 1238 0
L 422 0
z
M 1294 1731
Q 1294 1216 1456 969
Q 1684 619 2063 619
Q 2353 619 2558 867
Q 2763 1116 2763 1650
Q 2763 2219 2556 2470
Q 2350 2722 2028 2722
Q 1713 2722 1503 2476
Q 1294 2231 1294 1731
z
" transform="scale(0.015625)"/>
       <path id="Arial-BoldMT-65" d="M 2381 1056
L 3256 909
Q 3088 428 2723 176
Q 2359 -75 1813 -75
Q 947 -75 531 491
Q 203 944 203 1634
Q 203 2459 634 2926
Q 1066 3394 1725 3394
Q 2466 3394 2894 2905
Q 3322 2416 3303 1406
L 1103 1406
Q 1113 1016 1316 798
Q 1519 581 1822 581
Q 2028 581 2168 693
Q 2309 806 2381 1056
z
M 2431 1944
Q 2422 2325 2234 2523
Q 2047 2722 1778 2722
Q 1491 2722 1303 2513
Q 1116 2303 1119 1944
L 2431 1944
z
" transform="scale(0.015625)"/>
       <path id="Arial-BoldMT-72" d="M 1300 0
L 422 0
L 422 3319
L 1238 3319
L 1238 2847
Q 1447 3181 1614 3287
Q 1781 3394 1994 3394
Q 2294 3394 2572 3228
L 2300 2463
Q 2078 2606 1888 2606
Q 1703 2606 1575 2504
Q 1447 2403 1373 2137
Q 1300 1872 1300 1025
L 1300 0
z
" transform="scale(0.015625)"/>
       <path id="Arial-BoldMT-20" transform="scale(0.015625)"/>
       <path id="Arial-BoldMT-6f" d="M 256 1706
Q 256 2144 472 2553
Q 688 2963 1083 3178
Q 1478 3394 1966 3394
Q 2719 3394 3200 2905
Q 3681 2416 3681 1669
Q 3681 916 3195 420
Q 2709 -75 1972 -75
Q 1516 -75 1102 131
Q 688 338 472 736
Q 256 1134 256 1706
z
M 1156 1659
Q 1156 1166 1390 903
Q 1625 641 1969 641
Q 2313 641 2545 903
Q 2778 1166 2778 1666
Q 2778 2153 2545 2415
Q 2313 2678 1969 2678
Q 1625 2678 1390 2415
Q 1156 2153 1156 1659
z
" transform="scale(0.015625)"/>
       <path id="Arial-BoldMT-66" d="M 75 3319
L 563 3319
L 563 3569
Q 563 3988 652 4194
Q 741 4400 980 4529
Q 1219 4659 1584 4659
Q 1959 4659 2319 4547
L 2200 3934
Q 1991 3984 1797 3984
Q 1606 3984 1523 3895
Q 1441 3806 1441 3553
L 1441 3319
L 2097 3319
L 2097 2628
L 1441 2628
L 1441 0
L 563 0
L 563 2628
L 75 2628
L 75 3319
z
" transform="scale(0.015625)"/>
       <path id="Arial-BoldMT-64" d="M 3503 0
L 2688 0
L 2688 488
Q 2484 203 2207 64
Q 1931 -75 1650 -75
Q 1078 -75 670 386
Q 263 847 263 1672
Q 263 2516 659 2955
Q 1056 3394 1663 3394
Q 2219 3394 2625 2931
L 2625 4581
L 3503 4581
L 3503 0
z
M 1159 1731
Q 1159 1200 1306 963
Q 1519 619 1900 619
Q 2203 619 2415 876
Q 2628 1134 2628 1647
Q 2628 2219 2422 2470
Q 2216 2722 1894 2722
Q 1581 2722 1370 2473
Q 1159 2225 1159 1731
z
" transform="scale(0.015625)"/>
       <path id="Arial-BoldMT-67" d="M 378 -219
L 1381 -341
Q 1406 -516 1497 -581
Q 1622 -675 1891 -675
Q 2234 -675 2406 -572
Q 2522 -503 2581 -350
Q 2622 -241 2622 53
L 2622 538
Q 2228 0 1628 0
Q 959 0 569 566
Q 263 1013 263 1678
Q 263 2513 664 2953
Q 1066 3394 1663 3394
Q 2278 3394 2678 2853
L 2678 3319
L 3500 3319
L 3500 341
Q 3500 -247 3403 -537
Q 3306 -828 3131 -993
Q 2956 -1159 2664 -1253
Q 2372 -1347 1925 -1347
Q 1081 -1347 728 -1058
Q 375 -769 375 -325
Q 375 -281 378 -219
z
M 1163 1728
Q 1163 1200 1367 954
Q 1572 709 1872 709
Q 2194 709 2416 961
Q 2638 1213 2638 1706
Q 2638 2222 2425 2472
Q 2213 2722 1888 2722
Q 1572 2722 1367 2476
Q 1163 2231 1163 1728
z
" transform="scale(0.015625)"/>
       <path id="Arial-BoldMT-73" d="M 150 947
L 1031 1081
Q 1088 825 1259 692
Q 1431 559 1741 559
Q 2081 559 2253 684
Q 2369 772 2369 919
Q 2369 1019 2306 1084
Q 2241 1147 2013 1200
Q 950 1434 666 1628
Q 272 1897 272 2375
Q 272 2806 612 3100
Q 953 3394 1669 3394
Q 2350 3394 2681 3172
Q 3013 2950 3138 2516
L 2309 2363
Q 2256 2556 2107 2659
Q 1959 2763 1684 2763
Q 1338 2763 1188 2666
Q 1088 2597 1088 2488
Q 1088 2394 1175 2328
Q 1294 2241 1995 2081
Q 2697 1922 2975 1691
Q 3250 1456 3250 1038
Q 3250 581 2869 253
Q 2488 -75 1741 -75
Q 1063 -75 667 200
Q 272 475 150 947
z
" transform="scale(0.015625)"/>
      </defs>
      <use xlink:href="#Arial-BoldMT-4e"/>
      <use xlink:href="#Arial-BoldMT-75" transform="translate(72.216797 0)"/>
      <use xlink:href="#Arial-BoldMT-6d" transform="translate(133.300781 0)"/>
      <use xlink:href="#Arial-BoldMT-62" transform="translate(222.216797 0)"/>
      <use xlink:href="#Arial-BoldMT-65" transform="translate(283.300781 0)"/>
      <use xlink:href="#Arial-BoldMT-72" transform="translate(338.916016 0)"/>
      <use xlink:href="#Arial-BoldMT-20" transform="translate(377.832031 0)"/>
      <use xlink:href="#Arial-BoldMT-6f" transform="translate(405.615234 0)"/>
      <use xlink:href="#Arial-BoldMT-66" transform="translate(466.699219 0)"/>
      <use xlink:href="#Arial-BoldMT-20" transform="translate(500 0)"/>
      <use xlink:href="#Arial-BoldMT-65" transform="translate(527.783203 0)"/>
      <use xlink:href="#Arial-BoldMT-64" transform="translate(583.398438 0)"/>
      <use xlink:href="#Arial-BoldMT-67" transform="translate(644.482422 0)"/>
      <use xlink:href="#Arial-BoldMT-65" transform="translate(705.566406 0)"/>
      <use xlink:href="#Arial-BoldMT-73" transform="translate(761.181641 0)"/>
     </g>
    </g>
   </g>
   <g id="matplotlib.axis_2">
    <g id="ytick_1">
     <g id="line2d_8">
      <path d="M 48.206158 470.017733
L 997.2 470.017733
" clip-path="url(#pb81340c524)" style="fill: none; stroke: #cccccc; stroke-opacity: 0.3; stroke-width: 0.8; stroke-linecap: round"/>
     </g>
     <g id="text_9">
      <!-- $\mathdefault{10^{1}}$ -->
      <g style="fill: #262626" transform="translate(25.506158 475.173983) scale(0.1 -0.1)">
       <use xlink:href="#ArialMT-31" transform="translate(0 0.99375)"/>
       <use xlink:href="#ArialMT-30" transform="translate(55.615234 0.99375)"/>
       <use xlink:href="#ArialMT-31" transform="translate(112.972813 70.6875) scale(0.7)"/>
      </g>
     </g>
    </g>
    <g id="ytick_2">
     <g id="line2d_9">
      <path d="M 48.206158 368.74058
L 997.2 368.74058
" clip-path="url(#pb81340c524)" style="fill: none; stroke: #cccccc; stroke-opacity: 0.3; stroke-width: 0.8; stroke-linecap: round"/>
     </g>
     <g id="text_10">
      <!-- $\mathdefault{10^{2}}$ -->
      <g style="fill: #262626" transform="translate(25.506158 373.89683) scale(0.1 -0.1)">
       <use xlink:href="#ArialMT-31" transform="translate(0 0.99375)"/>
       <use xlink:href="#ArialMT-30" transform="translate(55.615234 0.99375)"/>
       <use xlink:href="#ArialMT-32" transform="translate(112.972813 70.6875) scale(0.7)"/>
      </g>
     </g>
    </g>
    <g id="ytick_3">
     <g id="line2d_10">
      <path d="M 48.206158 267.463427
L 997.2 267.463427
" clip-path="url(#pb81340c524)" style="fill: none; stroke: #cccccc; stroke-opacity: 0.3; stroke-width: 0.8; stroke-linecap: round"/>
     </g>
     <g id="text_11">
      <!-- $\mathdefault{10^{3}}$ -->
      <g style="fill: #262626" transform="translate(25.506158 272.619677) scale(0.1 -0.1)">
       <defs>
        <path id="ArialMT-33" d="M 269 1209
L 831 1284
Q 928 806 1161 595
Q 1394 384 1728 384
Q 2125 384 2398 659
Q 2672 934 2672 1341
Q 2672 1728 2419 1979
Q 2166 2231 1775 2231
Q 1616 2231 1378 2169
L 1441 2663
Q 1497 2656 1531 2656
Q 1891 2656 2178 2843
Q 2466 3031 2466 3422
Q 2466 3731 2256 3934
Q 2047 4138 1716 4138
Q 1388 4138 1169 3931
Q 950 3725 888 3313
L 325 3413
Q 428 3978 793 4289
Q 1159 4600 1703 4600
Q 2078 4600 2393 4439
Q 2709 4278 2876 4000
Q 3044 3722 3044 3409
Q 3044 3113 2884 2869
Q 2725 2625 2413 2481
Q 2819 2388 3044 2092
Q 3269 1797 3269 1353
Q 3269 753 2831 336
Q 2394 -81 1725 -81
Q 1122 -81 723 278
Q 325 638 269 1209
z
" transform="scale(0.015625)"/>
       </defs>
       <use xlink:href="#ArialMT-31" transform="translate(0 0.99375)"/>
       <use xlink:href="#ArialMT-30" transform="translate(55.615234 0.99375)"/>
       <use xlink:href="#ArialMT-33" transform="translate(112.972813 70.6875) scale(0.7)"/>
      </g>
     </g>
    </g>
    <g id="ytick_4">
     <g id="line2d_11">
      <path d="M 48.206158 166.186275
L 997.2 166.186275
" clip-path="url(#pb81340c524)" style="fill: none; stroke: #cccccc; stroke-opacity: 0.3; stroke-width: 0.8; stroke-linecap: round"/>
     </g>
     <g id="text_12">
      <!-- $\mathdefault{10^{4}}$ -->
      <g style="fill: #262626" transform="translate(25.506158 171.292525) scale(0.1 -0.1)">
       <defs>
        <path id="ArialMT-34" d="M 2069 0
L 2069 1097
L 81 1097
L 81 1613
L 2172 4581
L 2631 4581
L 2631 1613
L 3250 1613
L 3250 1097
L 2631 1097
L 2631 0
L 2069 0
z
M 2069 1613
L 2069 3678
L 634 1613
L 2069 1613
z
" transform="scale(0.015625)"/>
       </defs>
       <use xlink:href="#ArialMT-31" transform="translate(0 0.201563)"/>
       <use xlink:href="#ArialMT-30" transform="translate(55.615234 0.201563)"/>
       <use xlink:href="#ArialMT-34" transform="translate(112.972813 69.895313) scale(0.7)"/>
      </g>
     </g>
    </g>
    <g id="ytick_5">
     <g id="line2d_12">
      <path d="M 48.206158 64.909122
L 997.2 64.909122
" clip-path="url(#pb81340c524)" style="fill: none; stroke: #cccccc; stroke-opacity: 0.3; stroke-width: 0.8; stroke-linecap: round"/>
     </g>
     <g id="text_13">
      <!-- $\mathdefault{10^{5}}$ -->
      <g style="fill: #262626" transform="translate(25.506158 70.015372) scale(0.1 -0.1)">
       <use xlink:href="#ArialMT-31" transform="translate(0 0.879688)"/>
       <use xlink:href="#ArialMT-30" transform="translate(55.615234 0.879688)"/>
       <use xlink:href="#ArialMT-35" transform="translate(112.972813 70.573438) scale(0.7)"/>
      </g>
     </g>
    </g>
    <g id="ytick_6"/>
    <g id="ytick_7"/>
    <g id="ytick_8"/>
    <g id="ytick_9"/>
    <g id="ytick_10"/>
    <g id="ytick_11"/>
    <g id="ytick_12"/>
    <g id="ytick_13"/>
    <g id="ytick_14"/>
    <g id="ytick_15"/>
    <g id="ytick_16"/>
    <g id="ytick_17"/>
    <g id="ytick_18"/>
    <g id="ytick_19"/>
    <g id="ytick_20"/>
    <g id="ytick_21"/>
    <g id="ytick_22"/>
    <g id="ytick_23"/>
    <g id="ytick_24"/>
    <g id="ytick_25"/>
    <g id="ytick_26"/>
    <g id="ytick_27"/>
    <g id="ytick_28"/>
    <g id="ytick_29"/>
    <g id="ytick_30"/>
    <g id="ytick_31"/>
    <g id="ytick_32"/>
    <g id="ytick_33"/>
    <g id="ytick_34"/>
    <g id="ytick_35"/>
    <g id="ytick_36"/>
    <g id="ytick_37"/>
    <g id="ytick_38"/>
    <g id="ytick_39"/>
    <g id="ytick_40"/>
    <g id="ytick_41"/>
    <g id="ytick_42"/>
    <g id="ytick_43"/>
    <g id="ytick_44"/>
    <g id="ytick_45"/>
    <g id="text_14">
     <!-- Average execution time (ms) -->
     <g style="fill: #262626" transform="translate(19.401471 348.346719) rotate(-90) scale(0.1 -0.1)">
      <defs>
       <path id="Arial-BoldMT-41" d="M 4597 0
L 3591 0
L 3191 1041
L 1359 1041
L 981 0
L 0 0
L 1784 4581
L 2763 4581
L 4597 0
z
M 2894 1813
L 2263 3513
L 1644 1813
L 2894 1813
z
" transform="scale(0.015625)"/>
       <path id="Arial-BoldMT-76" d="M 1372 0
L 34 3319
L 956 3319
L 1581 1625
L 1763 1059
Q 1834 1275 1853 1344
Q 1897 1484 1947 1625
L 2578 3319
L 3481 3319
L 2163 0
L 1372 0
z
" transform="scale(0.015625)"/>
       <path id="Arial-BoldMT-61" d="M 1116 2306
L 319 2450
Q 453 2931 781 3162
Q 1109 3394 1756 3394
Q 2344 3394 2631 3255
Q 2919 3116 3036 2902
Q 3153 2688 3153 2116
L 3144 1091
Q 3144 653 3186 445
Q 3228 238 3344 0
L 2475 0
Q 2441 88 2391 259
Q 2369 338 2359 363
Q 2134 144 1878 34
Q 1622 -75 1331 -75
Q 819 -75 523 203
Q 228 481 228 906
Q 228 1188 362 1408
Q 497 1628 739 1745
Q 981 1863 1438 1950
Q 2053 2066 2291 2166
L 2291 2253
Q 2291 2506 2166 2614
Q 2041 2722 1694 2722
Q 1459 2722 1328 2630
Q 1197 2538 1116 2306
z
M 2291 1594
Q 2122 1538 1756 1459
Q 1391 1381 1278 1306
Q 1106 1184 1106 997
Q 1106 813 1243 678
Q 1381 544 1594 544
Q 1831 544 2047 700
Q 2206 819 2256 991
Q 2291 1103 2291 1419
L 2291 1594
z
" transform="scale(0.015625)"/>
       <path id="Arial-BoldMT-78" d="M 38 0
L 1234 1709
L 88 3319
L 1159 3319
L 1747 2406
L 2366 3319
L 3397 3319
L 2272 1747
L 3500 0
L 2422 0
L 1747 1028
L 1066 0
L 38 0
z
" transform="scale(0.015625)"/>
       <path id="Arial-BoldMT-63" d="M 3353 2338
L 2488 2181
Q 2444 2441 2289 2572
Q 2134 2703 1888 2703
Q 1559 2703 1364 2476
Q 1169 2250 1169 1719
Q 1169 1128 1367 884
Q 1566 641 1900 641
Q 2150 641 2309 783
Q 2469 925 2534 1272
L 3397 1125
Q 3263 531 2881 228
Q 2500 -75 1859 -75
Q 1131 -75 698 384
Q 266 844 266 1656
Q 266 2478 700 2936
Q 1134 3394 1875 3394
Q 2481 3394 2839 3133
Q 3197 2872 3353 2338
z
" transform="scale(0.015625)"/>
       <path id="Arial-BoldMT-74" d="M 1981 3319
L 1981 2619
L 1381 2619
L 1381 1281
Q 1381 875 1398 808
Q 1416 741 1477 697
Q 1538 653 1625 653
Q 1747 653 1978 738
L 2053 56
Q 1747 -75 1359 -75
Q 1122 -75 931 4
Q 741 84 652 211
Q 563 338 528 553
Q 500 706 500 1172
L 500 2619
L 97 2619
L 97 3319
L 500 3319
L 500 3978
L 1381 4491
L 1381 3319
L 1981 3319
z
" transform="scale(0.015625)"/>
       <path id="Arial-BoldMT-69" d="M 459 3769
L 459 4581
L 1338 4581
L 1338 3769
L 459 3769
z
M 459 0
L 459 3319
L 1338 3319
L 1338 0
L 459 0
z
" transform="scale(0.015625)"/>
       <path id="Arial-BoldMT-6e" d="M 3478 0
L 2600 0
L 2600 1694
Q 2600 2231 2544 2389
Q 2488 2547 2361 2634
Q 2234 2722 2056 2722
Q 1828 2722 1647 2597
Q 1466 2472 1398 2265
Q 1331 2059 1331 1503
L 1331 0
L 453 0
L 453 3319
L 1269 3319
L 1269 2831
Q 1703 3394 2363 3394
Q 2653 3394 2893 3289
Q 3134 3184 3257 3021
Q 3381 2859 3429 2653
Q 3478 2447 3478 2063
L 3478 0
z
" transform="scale(0.015625)"/>
       <path id="Arial-BoldMT-28" d="M 1916 -1347
L 1313 -1347
Q 834 -625 584 153
Q 334 931 334 1659
Q 334 2563 644 3369
Q 913 4069 1325 4659
L 1925 4659
Q 1497 3713 1336 3048
Q 1175 2384 1175 1641
Q 1175 1128 1270 590
Q 1366 53 1531 -431
Q 1641 -750 1916 -1347
z
" transform="scale(0.015625)"/>
       <path id="Arial-BoldMT-29" d="M 216 -1347
Q 475 -791 581 -494
Q 688 -197 778 190
Q 869 578 912 926
Q 956 1275 956 1641
Q 956 2384 797 3048
Q 638 3713 209 4659
L 806 4659
Q 1278 3988 1539 3234
Q 1800 2481 1800 1706
Q 1800 1053 1594 306
Q 1359 -531 822 -1347
L 216 -1347
z
" transform="scale(0.015625)"/>
      </defs>
      <use xlink:href="#Arial-BoldMT-41"/>
      <use xlink:href="#Arial-BoldMT-76" transform="translate(68.466797 0)"/>
      <use xlink:href="#Arial-BoldMT-65" transform="translate(124.082031 0)"/>
      <use xlink:href="#Arial-BoldMT-72" transform="translate(179.697266 0)"/>
      <use xlink:href="#Arial-BoldMT-61" transform="translate(218.613281 0)"/>
      <use xlink:href="#Arial-BoldMT-67" transform="translate(274.228516 0)"/>
      <use xlink:href="#Arial-BoldMT-65" transform="translate(335.3125 0)"/>
      <use xlink:href="#Arial-BoldMT-20" transform="translate(390.927734 0)"/>
      <use xlink:href="#Arial-BoldMT-65" transform="translate(418.710938 0)"/>
      <use xlink:href="#Arial-BoldMT-78" transform="translate(474.326172 0)"/>
      <use xlink:href="#Arial-BoldMT-65" transform="translate(529.941406 0)"/>
      <use xlink:href="#Arial-BoldMT-63" transform="translate(585.556641 0)"/>
      <use xlink:href="#Arial-BoldMT-75" transform="translate(641.171875 0)"/>
      <use xlink:href="#Arial-BoldMT-74" transform="translate(702.255859 0)"/>
      <use xlink:href="#Arial-BoldMT-69" transform="translate(735.556641 0)"/>
      <use xlink:href="#Arial-BoldMT-6f" transform="translate(763.339844 0)"/>
      <use xlink:href="#Arial-BoldMT-6e" transform="translate(824.423828 0)"/>
      <use xlink:href="#Arial-BoldMT-20" transform="translate(885.507812 0)"/>
      <use xlink:href="#Arial-BoldMT-74" transform="translate(913.291016 0)"/>
      <use xlink:href="#Arial-BoldMT-69" transform="translate(946.591797 0)"/>
      <use xlink:href="#Arial-BoldMT-6d" transform="translate(974.375 0)"/>
      <use xlink:href="#Arial-BoldMT-65" transform="translate(1063.291016 0)"/>
      <use xlink:href="#Arial-BoldMT-20" transform="translate(1118.90625 0)"/>
      <use xlink:href="#Arial-BoldMT-28" transform="translate(1146.689453 0)"/>
      <use xlink:href="#Arial-BoldMT-6d" transform="translate(1179.990234 0)"/>
      <use xlink:href="#Arial-BoldMT-73" transform="translate(1268.90625 0)"/>
      <use xlink:href="#Arial-BoldMT-29" transform="translate(1324.521484 0)"/>
     </g>
    </g>
   </g>
   <g id="line2d_13">
    <path d="M 91.342242 510.987273
L 139.271224 475.817659
L 187.200206 428.977595
L 235.129188 374.214944
L 283.05817 298.7162
L 330.987151 266.827697
L 378.916133 258.258206
L 426.845115 229.275269
L 474.774097 140.408813
L 522.703079 194.507646
L 570.632061 129.327253
L 666.490025 110.056414
L 762.347989 165.057054
L 858.205952 88.631785
" clip-path="url(#pb81340c524)" style="fill: none; stroke: #f77189; stroke-opacity: 0.7; stroke-width: 2; stroke-linecap: round"/>
    <defs>
     <path id="m4087993506" d="M -4 4
L 4 4
L 4 -4
L -4 -4
z
" style="stroke: #f77189; stroke-opacity: 0.7; stroke-linejoin: miter"/>
    </defs>
    <g clip-path="url(#pb81340c524)">
     <use xlink:href="#m4087993506" x="91.342242" y="510.987273" style="fill: #f77189; fill-opacity: 0.7; stroke: #f77189; stroke-opacity: 0.7; stroke-linejoin: miter"/>
     <use xlink:href="#m4087993506" x="139.271224" y="475.817659" style="fill: #f77189; fill-opacity: 0.7; stroke: #f77189; stroke-opacity: 0.7; stroke-linejoin: miter"/>
     <use xlink:href="#m4087993506" x="187.200206" y="428.977595" style="fill: #f77189; fill-opacity: 0.7; stroke: #f77189; stroke-opacity: 0.7; stroke-linejoin: miter"/>
     <use xlink:href="#m4087993506" x="235.129188" y="374.214944" style="fill: #f77189; fill-opacity: 0.7; stroke: #f77189; stroke-opacity: 0.7; stroke-linejoin: miter"/>
     <use xlink:href="#m4087993506" x="283.05817" y="298.7162" style="fill: #f77189; fill-opacity: 0.7; stroke: #f77189; stroke-opacity: 0.7; stroke-linejoin: miter"/>
     <use xlink:href="#m4087993506" x="330.987151" y="266.827697" style="fill: #f77189; fill-opacity: 0.7; stroke: #f77189; stroke-opacity: 0.7; stroke-linejoin: miter"/>
     <use xlink:href="#m4087993506" x="378.916133" y="258.258206" style="fill: #f77189; fill-opacity: 0.7; stroke: #f77189; stroke-opacity: 0.7; stroke-linejoin: miter"/>
     <use xlink:href="#m4087993506" x="426.845115" y="229.275269" style="fill: #f77189; fill-opacity: 0.7; stroke: #f77189; stroke-opacity: 0.7; stroke-linejoin: miter"/>
     <use xlink:href="#m4087993506" x="474.774097" y="140.408813" style="fill: #f77189; fill-opacity: 0.7; stroke: #f77189; stroke-opacity: 0.7; stroke-linejoin: miter"/>
     <use xlink:href="#m4087993506" x="522.703079" y="194.507646" style="fill: #f77189; fill-opacity: 0.7; stroke: #f77189; stroke-opacity: 0.7; stroke-linejoin: miter"/>
     <use xlink:href="#m4087993506" x="570.632061" y="129.327253" style="fill: #f77189; fill-opacity: 0.7; stroke: #f77189; stroke-opacity: 0.7; stroke-linejoin: miter"/>
     <use xlink:href="#m4087993506" x="666.490025" y="110.056414" style="fill: #f77189; fill-opacity: 0.7; stroke: #f77189; stroke-opacity: 0.7; stroke-linejoin: miter"/>
     <use xlink:href="#m4087993506" x="762.347989" y="165.057054" style="fill: #f77189; fill-opacity: 0.7; stroke: #f77189; stroke-opacity: 0.7; stroke-linejoin: miter"/>
     <use xlink:href="#m4087993506" x="858.205952" y="88.631785" style="fill: #f77189; fill-opacity: 0.7; stroke: #f77189; stroke-opacity: 0.7; stroke-linejoin: miter"/>
    </g>
   </g>
   <g id="line2d_14">
    <path d="M 91.342242 473.316295
L 139.271224 390.976746
L 187.200206 340.598638
L 235.129188 278.194621
L 283.05817 201.64696
L 330.987151 100.447077
L 378.916133 264.598508
L 426.845115 233.019089
L 474.774097 135.22169
L 522.703079 204.442305
L 570.632061 139.163395
L 666.490025 120.710873
L 762.347989 176.935519
L 858.205952 100.775777
" clip-path="url(#pb81340c524)" style="fill: none; stroke: #bb9832; stroke-opacity: 0.7; stroke-width: 2; stroke-linecap: round"/>
    <defs>
     <path id="ma7c31954c3" d="M -4 4
L 4 4
L 4 -4
L -4 -4
z
" style="stroke: #bb9832; stroke-opacity: 0.7; stroke-linejoin: miter"/>
    </defs>
    <g clip-path="url(#pb81340c524)">
     <use xlink:href="#ma7c31954c3" x="91.342242" y="473.316295" style="fill: #bb9832; fill-opacity: 0.7; stroke: #bb9832; stroke-opacity: 0.7; stroke-linejoin: miter"/>
     <use xlink:href="#ma7c31954c3" x="139.271224" y="390.976746" style="fill: #bb9832; fill-opacity: 0.7; stroke: #bb9832; stroke-opacity: 0.7; stroke-linejoin: miter"/>
     <use xlink:href="#ma7c31954c3" x="187.200206" y="340.598638" style="fill: #bb9832; fill-opacity: 0.7; stroke: #bb9832; stroke-opacity: 0.7; stroke-linejoin: miter"/>
     <use xlink:href="#ma7c31954c3" x="235.129188" y="278.194621" style="fill: #bb9832; fill-opacity: 0.7; stroke: #bb9832; stroke-opacity: 0.7; stroke-linejoin: miter"/>
     <use xlink:href="#ma7c31954c3" x="283.05817" y="201.64696" style="fill: #bb9832; fill-opacity: 0.7; stroke: #bb9832; stroke-opacity: 0.7; stroke-linejoin: miter"/>
     <use xlink:href="#ma7c31954c3" x="330.987151" y="100.447077" style="fill: #bb9832; fill-opacity: 0.7; stroke: #bb9832; stroke-opacity: 0.7; stroke-linejoin: miter"/>
     <use xlink:href="#ma7c31954c3" x="378.916133" y="264.598508" style="fill: #bb9832; fill-opacity: 0.7; stroke: #bb9832; stroke-opacity: 0.7; stroke-linejoin: miter"/>
     <use xlink:href="#ma7c31954c3" x="426.845115" y="233.019089" style="fill: #bb9832; fill-opacity: 0.7; stroke: #bb9832; stroke-opacity: 0.7; stroke-linejoin: miter"/>
     <use xlink:href="#ma7c31954c3" x="474.774097" y="135.22169" style="fill: #bb9832; fill-opacity: 0.7; stroke: #bb9832; stroke-opacity: 0.7; stroke-linejoin: miter"/>
     <use xlink:href="#ma7c31954c3" x="522.703079" y="204.442305" style="fill: #bb9832; fill-opacity: 0.7; stroke: #bb9832; stroke-opacity: 0.7; stroke-linejoin: miter"/>
     <use xlink:href="#ma7c31954c3" x="570.632061" y="139.163395" style="fill: #bb9832; fill-opacity: 0.7; stroke: #bb9832; stroke-opacity: 0.7; stroke-linejoin: miter"/>
     <use xlink:href="#ma7c31954c3" x="666.490025" y="120.710873" style="fill: #bb9832; fill-opacity: 0.7; stroke: #bb9832; stroke-opacity: 0.7; stroke-linejoin: miter"/>
     <use xlink:href="#ma7c31954c3" x="762.347989" y="176.935519" style="fill: #bb9832; fill-opacity: 0.7; stroke: #bb9832; stroke-opacity: 0.7; stroke-linejoin: miter"/>
     <use xlink:href="#ma7c31954c3" x="858.205952" y="100.775777" style="fill: #bb9832; fill-opacity: 0.7; stroke: #bb9832; stroke-opacity: 0.7; stroke-linejoin: miter"/>
    </g>
   </g>
   <g id="line2d_15">
    <path d="M 91.342242 465.981022
L 139.271224 430.06665
L 187.200206 429.453072
L 235.129188 425.748533
L 283.05817 421.334088
L 330.987151 400.079993
L 378.916133 403.582216
L 426.845115 413.144268
L 474.774097 422.049146
L 522.703079 408.279585
L 570.632061 428.025802
L 666.490025 407.927929
L 762.347989 400.348833
L 858.205952 404.75392
L 954.063916 398.229105
" clip-path="url(#pb81340c524)" style="fill: none; stroke: #50b131; stroke-opacity: 0.7; stroke-width: 2; stroke-linecap: round"/>
    <defs>
     <path id="meeabba4183" d="M -4 4
L 4 4
L 4 -4
L -4 -4
z
" style="stroke: #50b131; stroke-opacity: 0.7; stroke-linejoin: miter"/>
    </defs>
    <g clip-path="url(#pb81340c524)">
     <use xlink:href="#meeabba4183" x="91.342242" y="465.981022" style="fill: #50b131; fill-opacity: 0.7; stroke: #50b131; stroke-opacity: 0.7; stroke-linejoin: miter"/>
     <use xlink:href="#meeabba4183" x="139.271224" y="430.06665" style="fill: #50b131; fill-opacity: 0.7; stroke: #50b131; stroke-opacity: 0.7; stroke-linejoin: miter"/>
     <use xlink:href="#meeabba4183" x="187.200206" y="429.453072" style="fill: #50b131; fill-opacity: 0.7; stroke: #50b131; stroke-opacity: 0.7; stroke-linejoin: miter"/>
     <use xlink:href="#meeabba4183" x="235.129188" y="425.748533" style="fill: #50b131; fill-opacity: 0.7; stroke: #50b131; stroke-opacity: 0.7; stroke-linejoin: miter"/>
     <use xlink:href="#meeabba4183" x="283.05817" y="421.334088" style="fill: #50b131; fill-opacity: 0.7; stroke: #50b131; stroke-opacity: 0.7; stroke-linejoin: miter"/>
     <use xlink:href="#meeabba4183" x="330.987151" y="400.079993" style="fill: #50b131; fill-opacity: 0.7; stroke: #50b131; stroke-opacity: 0.7; stroke-linejoin: miter"/>
     <use xlink:href="#meeabba4183" x="378.916133" y="403.582216" style="fill: #50b131; fill-opacity: 0.7; stroke: #50b131; stroke-opacity: 0.7; stroke-linejoin: miter"/>
     <use xlink:href="#meeabba4183" x="426.845115" y="413.144268" style="fill: #50b131; fill-opacity: 0.7; stroke: #50b131; stroke-opacity: 0.7; stroke-linejoin: miter"/>
     <use xlink:href="#meeabba4183" x="474.774097" y="422.049146" style="fill: #50b131; fill-opacity: 0.7; stroke: #50b131; stroke-opacity: 0.7; stroke-linejoin: miter"/>
     <use xlink:href="#meeabba4183" x="522.703079" y="408.279585" style="fill: #50b131; fill-opacity: 0.7; stroke: #50b131; stroke-opacity: 0.7; stroke-linejoin: miter"/>
     <use xlink:href="#meeabba4183" x="570.632061" y="428.025802" style="fill: #50b131; fill-opacity: 0.7; stroke: #50b131; stroke-opacity: 0.7; stroke-linejoin: miter"/>
     <use xlink:href="#meeabba4183" x="666.490025" y="407.927929" style="fill: #50b131; fill-opacity: 0.7; stroke: #50b131; stroke-opacity: 0.7; stroke-linejoin: miter"/>
     <use xlink:href="#meeabba4183" x="762.347989" y="400.348833" style="fill: #50b131; fill-opacity: 0.7; stroke: #50b131; stroke-opacity: 0.7; stroke-linejoin: miter"/>
     <use xlink:href="#meeabba4183" x="858.205952" y="404.75392" style="fill: #50b131; fill-opacity: 0.7; stroke: #50b131; stroke-opacity: 0.7; stroke-linejoin: miter"/>
     <use xlink:href="#meeabba4183" x="954.063916" y="398.229105" style="fill: #50b131; fill-opacity: 0.7; stroke: #50b131; stroke-opacity: 0.7; stroke-linejoin: miter"/>
    </g>
   </g>
   <g id="line2d_16">
    <path d="M 91.342242 383.417995
L 139.271224 287.162325
L 187.200206 217.905661
L 235.129188 113.116465
L 283.05817 208.494815
M 378.916133 98.920015
L 426.845115 169.264446
L 474.774097 350.993978
L 522.703079 61.203712
L 570.632061 255.984637
L 666.490025 155.576865
L 762.347989 49.932727
" clip-path="url(#pb81340c524)" style="fill: none; stroke: #36ada4; stroke-opacity: 0.7; stroke-width: 2; stroke-linecap: round"/>
    <defs>
     <path id="m689e023153" d="M -4 4
L 4 4
L 4 -4
L -4 -4
z
" style="stroke: #36ada4; stroke-opacity: 0.7; stroke-linejoin: miter"/>
    </defs>
    <g clip-path="url(#pb81340c524)">
     <use xlink:href="#m689e023153" x="91.342242" y="383.417995" style="fill: #36ada4; fill-opacity: 0.7; stroke: #36ada4; stroke-opacity: 0.7; stroke-linejoin: miter"/>
     <use xlink:href="#m689e023153" x="139.271224" y="287.162325" style="fill: #36ada4; fill-opacity: 0.7; stroke: #36ada4; stroke-opacity: 0.7; stroke-linejoin: miter"/>
     <use xlink:href="#m689e023153" x="187.200206" y="217.905661" style="fill: #36ada4; fill-opacity: 0.7; stroke: #36ada4; stroke-opacity: 0.7; stroke-linejoin: miter"/>
     <use xlink:href="#m689e023153" x="235.129188" y="113.116465" style="fill: #36ada4; fill-opacity: 0.7; stroke: #36ada4; stroke-opacity: 0.7; stroke-linejoin: miter"/>
     <use xlink:href="#m689e023153" x="283.05817" y="208.494815" style="fill: #36ada4; fill-opacity: 0.7; stroke: #36ada4; stroke-opacity: 0.7; stroke-linejoin: miter"/>
     <use xlink:href="#m689e023153" x="378.916133" y="98.920015" style="fill: #36ada4; fill-opacity: 0.7; stroke: #36ada4; stroke-opacity: 0.7; stroke-linejoin: miter"/>
     <use xlink:href="#m689e023153" x="426.845115" y="169.264446" style="fill: #36ada4; fill-opacity: 0.7; stroke: #36ada4; stroke-opacity: 0.7; stroke-linejoin: miter"/>
     <use xlink:href="#m689e023153" x="474.774097" y="350.993978" style="fill: #36ada4; fill-opacity: 0.7; stroke: #36ada4; stroke-opacity: 0.7; stroke-linejoin: miter"/>
     <use xlink:href="#m689e023153" x="522.703079" y="61.203712" style="fill: #36ada4; fill-opacity: 0.7; stroke: #36ada4; stroke-opacity: 0.7; stroke-linejoin: miter"/>
     <use xlink:href="#m689e023153" x="570.632061" y="255.984637" style="fill: #36ada4; fill-opacity: 0.7; stroke: #36ada4; stroke-opacity: 0.7; stroke-linejoin: miter"/>
     <use xlink:href="#m689e023153" x="666.490025" y="155.576865" style="fill: #36ada4; fill-opacity: 0.7; stroke: #36ada4; stroke-opacity: 0.7; stroke-linejoin: miter"/>
     <use xlink:href="#m689e023153" x="762.347989" y="49.932727" style="fill: #36ada4; fill-opacity: 0.7; stroke: #36ada4; stroke-opacity: 0.7; stroke-linejoin: miter"/>
    </g>
   </g>
   <g id="line2d_17">
    <path d="M 91.342242 461.014775
L 139.271224 450.577324
L 187.200206 448.163268
L 235.129188 440.426927
L 283.05817 438.632549
L 330.987151 419.24411
L 378.916133 435.524713
L 426.845115 427.655396
L 474.774097 430.032879
L 522.703079 420.806372
L 570.632061 428.204459
L 666.490025 419.566067
L 762.347989 419.510386
L 858.205952 415.036934
L 954.063916 400.810541
" clip-path="url(#pb81340c524)" style="fill: none; stroke: #3ba3ec; stroke-opacity: 0.7; stroke-width: 2; stroke-linecap: round"/>
    <defs>
     <path id="mc8ce07ebc5" d="M -4 4
L 4 4
L 4 -4
L -4 -4
z
" style="stroke: #3ba3ec; stroke-opacity: 0.7; stroke-linejoin: miter"/>
    </defs>
    <g clip-path="url(#pb81340c524)">
     <use xlink:href="#mc8ce07ebc5" x="91.342242" y="461.014775" style="fill: #3ba3ec; fill-opacity: 0.7; stroke: #3ba3ec; stroke-opacity: 0.7; stroke-linejoin: miter"/>
     <use xlink:href="#mc8ce07ebc5" x="139.271224" y="450.577324" style="fill: #3ba3ec; fill-opacity: 0.7; stroke: #3ba3ec; stroke-opacity: 0.7; stroke-linejoin: miter"/>
     <use xlink:href="#mc8ce07ebc5" x="187.200206" y="448.163268" style="fill: #3ba3ec; fill-opacity: 0.7; stroke: #3ba3ec; stroke-opacity: 0.7; stroke-linejoin: miter"/>
     <use xlink:href="#mc8ce07ebc5" x="235.129188" y="440.426927" style="fill: #3ba3ec; fill-opacity: 0.7; stroke: #3ba3ec; stroke-opacity: 0.7; stroke-linejoin: miter"/>
     <use xlink:href="#mc8ce07ebc5" x="283.05817" y="438.632549" style="fill: #3ba3ec; fill-opacity: 0.7; stroke: #3ba3ec; stroke-opacity: 0.7; stroke-linejoin: miter"/>
     <use xlink:href="#mc8ce07ebc5" x="330.987151" y="419.24411" style="fill: #3ba3ec; fill-opacity: 0.7; stroke: #3ba3ec; stroke-opacity: 0.7; stroke-linejoin: miter"/>
     <use xlink:href="#mc8ce07ebc5" x="378.916133" y="435.524713" style="fill: #3ba3ec; fill-opacity: 0.7; stroke: #3ba3ec; stroke-opacity: 0.7; stroke-linejoin: miter"/>
     <use xlink:href="#mc8ce07ebc5" x="426.845115" y="427.655396" style="fill: #3ba3ec; fill-opacity: 0.7; stroke: #3ba3ec; stroke-opacity: 0.7; stroke-linejoin: miter"/>
     <use xlink:href="#mc8ce07ebc5" x="474.774097" y="430.032879" style="fill: #3ba3ec; fill-opacity: 0.7; stroke: #3ba3ec; stroke-opacity: 0.7; stroke-linejoin: miter"/>
     <use xlink:href="#mc8ce07ebc5" x="522.703079" y="420.806372" style="fill: #3ba3ec; fill-opacity: 0.7; stroke: #3ba3ec; stroke-opacity: 0.7; stroke-linejoin: miter"/>
     <use xlink:href="#mc8ce07ebc5" x="570.632061" y="428.204459" style="fill: #3ba3ec; fill-opacity: 0.7; stroke: #3ba3ec; stroke-opacity: 0.7; stroke-linejoin: miter"/>
     <use xlink:href="#mc8ce07ebc5" x="666.490025" y="419.566067" style="fill: #3ba3ec; fill-opacity: 0.7; stroke: #3ba3ec; stroke-opacity: 0.7; stroke-linejoin: miter"/>
     <use xlink:href="#mc8ce07ebc5" x="762.347989" y="419.510386" style="fill: #3ba3ec; fill-opacity: 0.7; stroke: #3ba3ec; stroke-opacity: 0.7; stroke-linejoin: miter"/>
     <use xlink:href="#mc8ce07ebc5" x="858.205952" y="415.036934" style="fill: #3ba3ec; fill-opacity: 0.7; stroke: #3ba3ec; stroke-opacity: 0.7; stroke-linejoin: miter"/>
     <use xlink:href="#mc8ce07ebc5" x="954.063916" y="400.810541" style="fill: #3ba3ec; fill-opacity: 0.7; stroke: #3ba3ec; stroke-opacity: 0.7; stroke-linejoin: miter"/>
    </g>
   </g>
   <g id="line2d_18">
    <path d="M 91.342242 315.044734
L 139.271224 413.347831
L 187.200206 355.619042
L 235.129188 361.155124
L 283.05817 321.544942
L 330.987151 385.126303
L 378.916133 296.770948
L 426.845115 251.810442
L 474.774097 259.278117
L 522.703079 254.743762
L 570.632061 256.007974
L 666.490025 222.497555
L 762.347989 238.044298
L 858.205952 221.4172
L 954.063916 179.931998
" clip-path="url(#pb81340c524)" style="fill: none; stroke: #e866f4; stroke-opacity: 0.7; stroke-width: 2; stroke-linecap: round"/>
    <defs>
     <path id="m98716d0892" d="M -4 4
L 4 4
L 4 -4
L -4 -4
z
" style="stroke: #e866f4; stroke-opacity: 0.7; stroke-linejoin: miter"/>
    </defs>
    <g clip-path="url(#pb81340c524)">
     <use xlink:href="#m98716d0892" x="91.342242" y="315.044734" style="fill: #e866f4; fill-opacity: 0.7; stroke: #e866f4; stroke-opacity: 0.7; stroke-linejoin: miter"/>
     <use xlink:href="#m98716d0892" x="139.271224" y="413.347831" style="fill: #e866f4; fill-opacity: 0.7; stroke: #e866f4; stroke-opacity: 0.7; stroke-linejoin: miter"/>
     <use xlink:href="#m98716d0892" x="187.200206" y="355.619042" style="fill: #e866f4; fill-opacity: 0.7; stroke: #e866f4; stroke-opacity: 0.7; stroke-linejoin: miter"/>
     <use xlink:href="#m98716d0892" x="235.129188" y="361.155124" style="fill: #e866f4; fill-opacity: 0.7; stroke: #e866f4; stroke-opacity: 0.7; stroke-linejoin: miter"/>
     <use xlink:href="#m98716d0892" x="283.05817" y="321.544942" style="fill: #e866f4; fill-opacity: 0.7; stroke: #e866f4; stroke-opacity: 0.7; stroke-linejoin: miter"/>
     <use xlink:href="#m98716d0892" x="330.987151" y="385.126303" style="fill: #e866f4; fill-opacity: 0.7; stroke: #e866f4; stroke-opacity: 0.7; stroke-linejoin: miter"/>
     <use xlink:href="#m98716d0892" x="378.916133" y="296.770948" style="fill: #e866f4; fill-opacity: 0.7; stroke: #e866f4; stroke-opacity: 0.7; stroke-linejoin: miter"/>
     <use xlink:href="#m98716d0892" x="426.845115" y="251.810442" style="fill: #e866f4; fill-opacity: 0.7; stroke: #e866f4; stroke-opacity: 0.7; stroke-linejoin: miter"/>
     <use xlink:href="#m98716d0892" x="474.774097" y="259.278117" style="fill: #e866f4; fill-opacity: 0.7; stroke: #e866f4; stroke-opacity: 0.7; stroke-linejoin: miter"/>
     <use xlink:href="#m98716d0892" x="522.703079" y="254.743762" style="fill: #e866f4; fill-opacity: 0.7; stroke: #e866f4; stroke-opacity: 0.7; stroke-linejoin: miter"/>
     <use xlink:href="#m98716d0892" x="570.632061" y="256.007974" style="fill: #e866f4; fill-opacity: 0.7; stroke: #e866f4; stroke-opacity: 0.7; stroke-linejoin: miter"/>
     <use xlink:href="#m98716d0892" x="666.490025" y="222.497555" style="fill: #e866f4; fill-opacity: 0.7; stroke: #e866f4; stroke-opacity: 0.7; stroke-linejoin: miter"/>
     <use xlink:href="#m98716d0892" x="762.347989" y="238.044298" style="fill: #e866f4; fill-opacity: 0.7; stroke: #e866f4; stroke-opacity: 0.7; stroke-linejoin: miter"/>
     <use xlink:href="#m98716d0892" x="858.205952" y="221.4172" style="fill: #e866f4; fill-opacity: 0.7; stroke: #e866f4; stroke-opacity: 0.7; stroke-linejoin: miter"/>
     <use xlink:href="#m98716d0892" x="954.063916" y="179.931998" style="fill: #e866f4; fill-opacity: 0.7; stroke: #e866f4; stroke-opacity: 0.7; stroke-linejoin: miter"/>
    </g>
   </g>
   <g id="patch_3">
    <path d="M 48.206158 534.04
L 48.206158 26.88
" style="fill: none; stroke: #cccccc; stroke-width: 0.8; stroke-linejoin: miter; stroke-linecap: square"/>
   </g>
   <g id="patch_4">
    <path d="M 997.2 534.04
L 997.2 26.88
" style="fill: none; stroke: #cccccc; stroke-width: 0.8; stroke-linejoin: miter; stroke-linecap: square"/>
   </g>
   <g id="patch_5">
    <path d="M 48.206158 534.04
L 997.2 534.04
" style="fill: none; stroke: #cccccc; stroke-width: 0.8; stroke-linejoin: miter; stroke-linecap: square"/>
   </g>
   <g id="patch_6">
    <path d="M 48.206158 26.88
L 997.2 26.88
" style="fill: none; stroke: #cccccc; stroke-width: 0.8; stroke-linejoin: miter; stroke-linecap: square"/>
   </g>
   <g id="text_15">
    <!-- Scalability: time vs number of edges -->
    <g style="fill: #262626" transform="translate(401.342767 20.88) scale(0.14 -0.14)">
     <defs>
      <path id="Arial-BoldMT-53" d="M 231 1491
L 1131 1578
Q 1213 1125 1461 912
Q 1709 700 2131 700
Q 2578 700 2804 889
Q 3031 1078 3031 1331
Q 3031 1494 2936 1608
Q 2841 1722 2603 1806
Q 2441 1863 1863 2006
Q 1119 2191 819 2459
Q 397 2838 397 3381
Q 397 3731 595 4036
Q 794 4341 1167 4500
Q 1541 4659 2069 4659
Q 2931 4659 3367 4281
Q 3803 3903 3825 3272
L 2900 3231
Q 2841 3584 2645 3739
Q 2450 3894 2059 3894
Q 1656 3894 1428 3728
Q 1281 3622 1281 3444
Q 1281 3281 1419 3166
Q 1594 3019 2269 2859
Q 2944 2700 3267 2529
Q 3591 2359 3773 2064
Q 3956 1769 3956 1334
Q 3956 941 3737 597
Q 3519 253 3119 86
Q 2719 -81 2122 -81
Q 1253 -81 787 320
Q 322 722 231 1491
z
" transform="scale(0.015625)"/>
      <path id="Arial-BoldMT-6c" d="M 459 0
L 459 4581
L 1338 4581
L 1338 0
L 459 0
z
" transform="scale(0.015625)"/>
      <path id="Arial-BoldMT-79" d="M 44 3319
L 978 3319
L 1772 963
L 2547 3319
L 3456 3319
L 2284 125
L 2075 -453
Q 1959 -744 1854 -897
Q 1750 -1050 1614 -1145
Q 1478 -1241 1279 -1294
Q 1081 -1347 831 -1347
Q 578 -1347 334 -1294
L 256 -606
Q 463 -647 628 -647
Q 934 -647 1081 -467
Q 1228 -288 1306 -9
L 44 3319
z
" transform="scale(0.015625)"/>
      <path id="Arial-BoldMT-3a" d="M 628 2441
L 628 3319
L 1506 3319
L 1506 2441
L 628 2441
z
M 628 0
L 628 878
L 1506 878
L 1506 0
L 628 0
z
" transform="scale(0.015625)"/>
     </defs>
     <use xlink:href="#Arial-BoldMT-53"/>
     <use xlink:href="#Arial-BoldMT-63" transform="translate(66.699219 0)"/>
     <use xlink:href="#Arial-BoldMT-61" transform="translate(122.314453 0)"/>
     <use xlink:href="#Arial-BoldMT-6c" transform="translate(177.929688 0)"/>
     <use xlink:href="#Arial-BoldMT-61" transform="translate(205.712891 0)"/>
     <use xlink:href="#Arial-BoldMT-62" transform="translate(261.328125 0)"/>
     <use xlink:href="#Arial-BoldMT-69" transform="translate(322.412109 0)"/>
     <use xlink:href="#Arial-BoldMT-6c" transform="translate(350.195312 0)"/>
     <use xlink:href="#Arial-BoldMT-69" transform="translate(377.978516 0)"/>
     <use xlink:href="#Arial-BoldMT-74" transform="translate(405.761719 0)"/>
     <use xlink:href="#Arial-BoldMT-79" transform="translate(439.0625 0)"/>
     <use xlink:href="#Arial-BoldMT-3a" transform="translate(494.677734 0)"/>
     <use xlink:href="#Arial-BoldMT-20" transform="translate(527.978516 0)"/>
     <use xlink:href="#Arial-BoldMT-74" transform="translate(555.761719 0)"/>
     <use xlink:href="#Arial-BoldMT-69" transform="translate(589.0625 0)"/>
     <use xlink:href="#Arial-BoldMT-6d" transform="translate(616.845703 0)"/>
     <use xlink:href="#Arial-BoldMT-65" transform="translate(705.761719 0)"/>
     <use xlink:href="#Arial-BoldMT-20" transform="translate(761.376953 0)"/>
     <use xlink:href="#Arial-BoldMT-76" transform="translate(789.160156 0)"/>
     <use xlink:href="#Arial-BoldMT-73" transform="translate(844.775391 0)"/>
     <use xlink:href="#Arial-BoldMT-20" transform="translate(900.390625 0)"/>
     <use xlink:href="#Arial-BoldMT-6e" transform="translate(928.173828 0)"/>
     <use xlink:href="#Arial-BoldMT-75" transform="translate(989.257812 0)"/>
     <use xlink:href="#Arial-BoldMT-6d" transform="translate(1050.341797 0)"/>
     <use xlink:href="#Arial-BoldMT-62" transform="translate(1139.257812 0)"/>
     <use xlink:href="#Arial-BoldMT-65" transform="translate(1200.341797 0)"/>
     <use xlink:href="#Arial-BoldMT-72" transform="translate(1255.957031 0)"/>
     <use xlink:href="#Arial-BoldMT-20" transform="translate(1294.873047 0)"/>
     <use xlink:href="#Arial-BoldMT-6f" transform="translate(1322.65625 0)"/>
     <use xlink:href="#Arial-BoldMT-66" transform="translate(1383.740234 0)"/>
     <use xlink:href="#Arial-BoldMT-20" transform="translate(1417.041016 0)"/>
     <use xlink:href="#Arial-BoldMT-65" transform="translate(1444.824219 0)"/>
     <use xlink:href="#Arial-BoldMT-64" transform="translate(1500.439453 0)"/>
     <use xlink:href="#Arial-BoldMT-67" transform="translate(1561.523438 0)"/>
     <use xlink:href="#Arial-BoldMT-65" transform="translate(1622.607422 0)"/>
     <use xlink:href="#Arial-BoldMT-73" transform="translate(1678.222656 0)"/>
    </g>
   </g>
   <g id="legend_1">
    <g id="patch_7">
     <path d="M 866.473438 120.137812
L 990.2 120.137812
Q 992.2 120.137812 992.2 118.137812
L 992.2 33.88
Q 992.2 31.88 990.2 31.88
L 866.473438 31.88
Q 864.473438 31.88 864.473438 33.88
L 864.473438 118.137812
Q 864.473438 120.137812 866.473438 120.137812
z
" style="fill: #ffffff; opacity: 0.9; stroke: #cccccc; stroke-linejoin: miter"/>
    </g>
    <g id="line2d_19">
     <path d="M 868.473438 39.659688
L 878.473438 39.659688
L 888.473438 39.659688
" style="fill: none; stroke: #f77189; stroke-opacity: 0.7; stroke-width: 2; stroke-linecap: round"/>
     <g>
      <use xlink:href="#m4087993506" x="878.473438" y="39.659688" style="fill: #f77189; fill-opacity: 0.7; stroke: #f77189; stroke-opacity: 0.7; stroke-linejoin: miter"/>
     </g>
    </g>
    <g id="text_16">
     <!-- bruteforce_arcmatch -->
     <g style="fill: #262626" transform="translate(896.473438 43.159688) scale(0.1 -0.1)">
      <defs>
       <path id="ArialMT-62" d="M 941 0
L 419 0
L 419 4581
L 981 4581
L 981 2947
Q 1338 3394 1891 3394
Q 2197 3394 2470 3270
Q 2744 3147 2920 2923
Q 3097 2700 3197 2384
Q 3297 2069 3297 1709
Q 3297 856 2875 390
Q 2453 -75 1863 -75
Q 1275 -75 941 416
L 941 0
z
M 934 1684
Q 934 1088 1097 822
Q 1363 388 1816 388
Q 2184 388 2453 708
Q 2722 1028 2722 1663
Q 2722 2313 2464 2622
Q 2206 2931 1841 2931
Q 1472 2931 1203 2611
Q 934 2291 934 1684
z
" transform="scale(0.015625)"/>
       <path id="ArialMT-72" d="M 416 0
L 416 3319
L 922 3319
L 922 2816
Q 1116 3169 1280 3281
Q 1444 3394 1641 3394
Q 1925 3394 2219 3213
L 2025 2691
Q 1819 2813 1613 2813
Q 1428 2813 1281 2702
Q 1134 2591 1072 2394
Q 978 2094 978 1738
L 978 0
L 416 0
z
" transform="scale(0.015625)"/>
       <path id="ArialMT-75" d="M 2597 0
L 2597 488
Q 2209 -75 1544 -75
Q 1250 -75 995 37
Q 741 150 617 320
Q 494 491 444 738
Q 409 903 409 1263
L 409 3319
L 972 3319
L 972 1478
Q 972 1038 1006 884
Q 1059 663 1231 536
Q 1403 409 1656 409
Q 1909 409 2131 539
Q 2353 669 2445 892
Q 2538 1116 2538 1541
L 2538 3319
L 3100 3319
L 3100 0
L 2597 0
z
" transform="scale(0.015625)"/>
       <path id="ArialMT-74" d="M 1650 503
L 1731 6
Q 1494 -44 1306 -44
Q 1000 -44 831 53
Q 663 150 594 308
Q 525 466 525 972
L 525 2881
L 113 2881
L 113 3319
L 525 3319
L 525 4141
L 1084 4478
L 1084 3319
L 1650 3319
L 1650 2881
L 1084 2881
L 1084 941
Q 1084 700 1114 631
Q 1144 563 1211 522
Q 1278 481 1403 481
Q 1497 481 1650 503
z
" transform="scale(0.015625)"/>
       <path id="ArialMT-65" d="M 2694 1069
L 3275 997
Q 3138 488 2766 206
Q 2394 -75 1816 -75
Q 1088 -75 661 373
Q 234 822 234 1631
Q 234 2469 665 2931
Q 1097 3394 1784 3394
Q 2450 3394 2872 2941
Q 3294 2488 3294 1666
Q 3294 1616 3291 1516
L 816 1516
Q 847 969 1125 678
Q 1403 388 1819 388
Q 2128 388 2347 550
Q 2566 713 2694 1069
z
M 847 1978
L 2700 1978
Q 2663 2397 2488 2606
Q 2219 2931 1791 2931
Q 1403 2931 1139 2672
Q 875 2413 847 1978
z
" transform="scale(0.015625)"/>
       <path id="ArialMT-66" d="M 556 0
L 556 2881
L 59 2881
L 59 3319
L 556 3319
L 556 3672
Q 556 4006 616 4169
Q 697 4388 901 4523
Q 1106 4659 1475 4659
Q 1713 4659 2000 4603
L 1916 4113
Q 1741 4144 1584 4144
Q 1328 4144 1222 4034
Q 1116 3925 1116 3625
L 1116 3319
L 1763 3319
L 1763 2881
L 1116 2881
L 1116 0
L 556 0
z
" transform="scale(0.015625)"/>
       <path id="ArialMT-6f" d="M 213 1659
Q 213 2581 725 3025
Q 1153 3394 1769 3394
Q 2453 3394 2887 2945
Q 3322 2497 3322 1706
Q 3322 1066 3130 698
Q 2938 331 2570 128
Q 2203 -75 1769 -75
Q 1072 -75 642 372
Q 213 819 213 1659
z
M 791 1659
Q 791 1022 1069 705
Q 1347 388 1769 388
Q 2188 388 2466 706
Q 2744 1025 2744 1678
Q 2744 2294 2464 2611
Q 2184 2928 1769 2928
Q 1347 2928 1069 2612
Q 791 2297 791 1659
z
" transform="scale(0.015625)"/>
       <path id="ArialMT-63" d="M 2588 1216
L 3141 1144
Q 3050 572 2676 248
Q 2303 -75 1759 -75
Q 1078 -75 664 370
Q 250 816 250 1647
Q 250 2184 428 2587
Q 606 2991 970 3192
Q 1334 3394 1763 3394
Q 2303 3394 2647 3120
Q 2991 2847 3088 2344
L 2541 2259
Q 2463 2594 2264 2762
Q 2066 2931 1784 2931
Q 1359 2931 1093 2626
Q 828 2322 828 1663
Q 828 994 1084 691
Q 1341 388 1753 388
Q 2084 388 2306 591
Q 2528 794 2588 1216
z
" transform="scale(0.015625)"/>
       <path id="ArialMT-5f" d="M -97 -1272
L -97 -866
L 3631 -866
L 3631 -1272
L -97 -1272
z
" transform="scale(0.015625)"/>
       <path id="ArialMT-61" d="M 2588 409
Q 2275 144 1986 34
Q 1697 -75 1366 -75
Q 819 -75 525 192
Q 231 459 231 875
Q 231 1119 342 1320
Q 453 1522 633 1644
Q 813 1766 1038 1828
Q 1203 1872 1538 1913
Q 2219 1994 2541 2106
Q 2544 2222 2544 2253
Q 2544 2597 2384 2738
Q 2169 2928 1744 2928
Q 1347 2928 1158 2789
Q 969 2650 878 2297
L 328 2372
Q 403 2725 575 2942
Q 747 3159 1072 3276
Q 1397 3394 1825 3394
Q 2250 3394 2515 3294
Q 2781 3194 2906 3042
Q 3031 2891 3081 2659
Q 3109 2516 3109 2141
L 3109 1391
Q 3109 606 3145 398
Q 3181 191 3288 0
L 2700 0
Q 2613 175 2588 409
z
M 2541 1666
Q 2234 1541 1622 1453
Q 1275 1403 1131 1340
Q 988 1278 909 1158
Q 831 1038 831 891
Q 831 666 1001 516
Q 1172 366 1500 366
Q 1825 366 2078 508
Q 2331 650 2450 897
Q 2541 1088 2541 1459
L 2541 1666
z
" transform="scale(0.015625)"/>
       <path id="ArialMT-6d" d="M 422 0
L 422 3319
L 925 3319
L 925 2853
Q 1081 3097 1340 3245
Q 1600 3394 1931 3394
Q 2300 3394 2536 3241
Q 2772 3088 2869 2813
Q 3263 3394 3894 3394
Q 4388 3394 4653 3120
Q 4919 2847 4919 2278
L 4919 0
L 4359 0
L 4359 2091
Q 4359 2428 4304 2576
Q 4250 2725 4106 2815
Q 3963 2906 3769 2906
Q 3419 2906 3187 2673
Q 2956 2441 2956 1928
L 2956 0
L 2394 0
L 2394 2156
Q 2394 2531 2256 2718
Q 2119 2906 1806 2906
Q 1569 2906 1367 2781
Q 1166 2656 1075 2415
Q 984 2175 984 1722
L 984 0
L 422 0
z
" transform="scale(0.015625)"/>
       <path id="ArialMT-68" d="M 422 0
L 422 4581
L 984 4581
L 984 2938
Q 1378 3394 1978 3394
Q 2347 3394 2619 3248
Q 2891 3103 3008 2847
Q 3125 2591 3125 2103
L 3125 0
L 2563 0
L 2563 2103
Q 2563 2525 2380 2717
Q 2197 2909 1863 2909
Q 1613 2909 1392 2779
Q 1172 2650 1078 2428
Q 984 2206 984 1816
L 984 0
L 422 0
z
" transform="scale(0.015625)"/>
      </defs>
      <use xlink:href="#ArialMT-62"/>
      <use xlink:href="#ArialMT-72" transform="translate(55.615234 0)"/>
      <use xlink:href="#ArialMT-75" transform="translate(88.916016 0)"/>
      <use xlink:href="#ArialMT-74" transform="translate(144.53125 0)"/>
      <use xlink:href="#ArialMT-65" transform="translate(172.314453 0)"/>
      <use xlink:href="#ArialMT-66" transform="translate(227.929688 0)"/>
      <use xlink:href="#ArialMT-6f" transform="translate(255.712891 0)"/>
      <use xlink:href="#ArialMT-72" transform="translate(311.328125 0)"/>
      <use xlink:href="#ArialMT-63" transform="translate(344.628906 0)"/>
      <use xlink:href="#ArialMT-65" transform="translate(394.628906 0)"/>
      <use xlink:href="#ArialMT-5f" transform="translate(450.244141 0)"/>
      <use xlink:href="#ArialMT-61" transform="translate(505.859375 0)"/>
      <use xlink:href="#ArialMT-72" transform="translate(561.474609 0)"/>
      <use xlink:href="#ArialMT-63" transform="translate(594.775391 0)"/>
      <use xlink:href="#ArialMT-6d" transform="translate(644.775391 0)"/>
      <use xlink:href="#ArialMT-61" transform="translate(728.076172 0)"/>
      <use xlink:href="#ArialMT-74" transform="translate(783.691406 0)"/>
      <use xlink:href="#ArialMT-63" transform="translate(811.474609 0)"/>
      <use xlink:href="#ArialMT-68" transform="translate(861.474609 0)"/>
     </g>
    </g>
    <g id="line2d_20">
     <path d="M 868.473438 53.805
L 878.473438 53.805
L 888.473438 53.805
" style="fill: none; stroke: #bb9832; stroke-opacity: 0.7; stroke-width: 2; stroke-linecap: round"/>
     <g>
      <use xlink:href="#ma7c31954c3" x="878.473438" y="53.805" style="fill: #bb9832; fill-opacity: 0.7; stroke: #bb9832; stroke-opacity: 0.7; stroke-linejoin: miter"/>
     </g>
    </g>
    <g id="text_17">
     <!-- connected_mces -->
     <g style="fill: #262626" transform="translate(896.473438 57.305) scale(0.1 -0.1)">
      <defs>
       <path id="ArialMT-6e" d="M 422 0
L 422 3319
L 928 3319
L 928 2847
Q 1294 3394 1984 3394
Q 2284 3394 2536 3286
Q 2788 3178 2913 3003
Q 3038 2828 3088 2588
Q 3119 2431 3119 2041
L 3119 0
L 2556 0
L 2556 2019
Q 2556 2363 2490 2533
Q 2425 2703 2258 2804
Q 2091 2906 1866 2906
Q 1506 2906 1245 2678
Q 984 2450 984 1813
L 984 0
L 422 0
z
" transform="scale(0.015625)"/>
       <path id="ArialMT-64" d="M 2575 0
L 2575 419
Q 2259 -75 1647 -75
Q 1250 -75 917 144
Q 584 363 401 755
Q 219 1147 219 1656
Q 219 2153 384 2558
Q 550 2963 881 3178
Q 1213 3394 1622 3394
Q 1922 3394 2156 3267
Q 2391 3141 2538 2938
L 2538 4581
L 3097 4581
L 3097 0
L 2575 0
z
M 797 1656
Q 797 1019 1065 703
Q 1334 388 1700 388
Q 2069 388 2326 689
Q 2584 991 2584 1609
Q 2584 2291 2321 2609
Q 2059 2928 1675 2928
Q 1300 2928 1048 2622
Q 797 2316 797 1656
z
" transform="scale(0.015625)"/>
       <path id="ArialMT-73" d="M 197 991
L 753 1078
Q 800 744 1014 566
Q 1228 388 1613 388
Q 2000 388 2187 545
Q 2375 703 2375 916
Q 2375 1106 2209 1216
Q 2094 1291 1634 1406
Q 1016 1563 777 1677
Q 538 1791 414 1992
Q 291 2194 291 2438
Q 291 2659 392 2848
Q 494 3038 669 3163
Q 800 3259 1026 3326
Q 1253 3394 1513 3394
Q 1903 3394 2198 3281
Q 2494 3169 2634 2976
Q 2775 2784 2828 2463
L 2278 2388
Q 2241 2644 2061 2787
Q 1881 2931 1553 2931
Q 1166 2931 1000 2803
Q 834 2675 834 2503
Q 834 2394 903 2306
Q 972 2216 1119 2156
Q 1203 2125 1616 2013
Q 2213 1853 2448 1751
Q 2684 1650 2818 1456
Q 2953 1263 2953 975
Q 2953 694 2789 445
Q 2625 197 2315 61
Q 2006 -75 1616 -75
Q 969 -75 630 194
Q 291 463 197 991
z
" transform="scale(0.015625)"/>
      </defs>
      <use xlink:href="#ArialMT-63"/>
      <use xlink:href="#ArialMT-6f" transform="translate(50 0)"/>
      <use xlink:href="#ArialMT-6e" transform="translate(105.615234 0)"/>
      <use xlink:href="#ArialMT-6e" transform="translate(161.230469 0)"/>
      <use xlink:href="#ArialMT-65" transform="translate(216.845703 0)"/>
      <use xlink:href="#ArialMT-63" transform="translate(272.460938 0)"/>
      <use xlink:href="#ArialMT-74" transform="translate(322.460938 0)"/>
      <use xlink:href="#ArialMT-65" transform="translate(350.244141 0)"/>
      <use xlink:href="#ArialMT-64" transform="translate(405.859375 0)"/>
      <use xlink:href="#ArialMT-5f" transform="translate(461.474609 0)"/>
      <use xlink:href="#ArialMT-6d" transform="translate(517.089844 0)"/>
      <use xlink:href="#ArialMT-63" transform="translate(600.390625 0)"/>
      <use xlink:href="#ArialMT-65" transform="translate(650.390625 0)"/>
      <use xlink:href="#ArialMT-73" transform="translate(706.005859 0)"/>
     </g>
    </g>
    <g id="line2d_21">
     <path d="M 868.473438 67.950312
L 878.473438 67.950312
L 888.473438 67.950312
" style="fill: none; stroke: #50b131; stroke-opacity: 0.7; stroke-width: 2; stroke-linecap: round"/>
     <g>
      <use xlink:href="#meeabba4183" x="878.473438" y="67.950312" style="fill: #50b131; fill-opacity: 0.7; stroke: #50b131; stroke-opacity: 0.7; stroke-linejoin: miter"/>
     </g>
    </g>
    <g id="text_18">
     <!-- greedy_path_mces -->
     <g style="fill: #262626" transform="translate(896.473438 71.450312) scale(0.1 -0.1)">
      <defs>
       <path id="ArialMT-67" d="M 319 -275
L 866 -356
Q 900 -609 1056 -725
Q 1266 -881 1628 -881
Q 2019 -881 2231 -725
Q 2444 -569 2519 -288
Q 2563 -116 2559 434
Q 2191 0 1641 0
Q 956 0 581 494
Q 206 988 206 1678
Q 206 2153 378 2554
Q 550 2956 876 3175
Q 1203 3394 1644 3394
Q 2231 3394 2613 2919
L 2613 3319
L 3131 3319
L 3131 450
Q 3131 -325 2973 -648
Q 2816 -972 2473 -1159
Q 2131 -1347 1631 -1347
Q 1038 -1347 672 -1080
Q 306 -813 319 -275
z
M 784 1719
Q 784 1066 1043 766
Q 1303 466 1694 466
Q 2081 466 2343 764
Q 2606 1063 2606 1700
Q 2606 2309 2336 2618
Q 2066 2928 1684 2928
Q 1309 2928 1046 2623
Q 784 2319 784 1719
z
" transform="scale(0.015625)"/>
       <path id="ArialMT-79" d="M 397 -1278
L 334 -750
Q 519 -800 656 -800
Q 844 -800 956 -737
Q 1069 -675 1141 -563
Q 1194 -478 1313 -144
Q 1328 -97 1363 -6
L 103 3319
L 709 3319
L 1400 1397
Q 1534 1031 1641 628
Q 1738 1016 1872 1384
L 2581 3319
L 3144 3319
L 1881 -56
Q 1678 -603 1566 -809
Q 1416 -1088 1222 -1217
Q 1028 -1347 759 -1347
Q 597 -1347 397 -1278
z
" transform="scale(0.015625)"/>
       <path id="ArialMT-70" d="M 422 -1272
L 422 3319
L 934 3319
L 934 2888
Q 1116 3141 1344 3267
Q 1572 3394 1897 3394
Q 2322 3394 2647 3175
Q 2972 2956 3137 2557
Q 3303 2159 3303 1684
Q 3303 1175 3120 767
Q 2938 359 2589 142
Q 2241 -75 1856 -75
Q 1575 -75 1351 44
Q 1128 163 984 344
L 984 -1272
L 422 -1272
z
M 931 1641
Q 931 1000 1190 694
Q 1450 388 1819 388
Q 2194 388 2461 705
Q 2728 1022 2728 1688
Q 2728 2322 2467 2637
Q 2206 2953 1844 2953
Q 1484 2953 1207 2617
Q 931 2281 931 1641
z
" transform="scale(0.015625)"/>
      </defs>
      <use xlink:href="#ArialMT-67"/>
      <use xlink:href="#ArialMT-72" transform="translate(55.615234 0)"/>
      <use xlink:href="#ArialMT-65" transform="translate(88.916016 0)"/>
      <use xlink:href="#ArialMT-65" transform="translate(144.53125 0)"/>
      <use xlink:href="#ArialMT-64" transform="translate(200.146484 0)"/>
      <use xlink:href="#ArialMT-79" transform="translate(255.761719 0)"/>
      <use xlink:href="#ArialMT-5f" transform="translate(305.761719 0)"/>
      <use xlink:href="#ArialMT-70" transform="translate(361.376953 0)"/>
      <use xlink:href="#ArialMT-61" transform="translate(416.992188 0)"/>
      <use xlink:href="#ArialMT-74" transform="translate(472.607422 0)"/>
      <use xlink:href="#ArialMT-68" transform="translate(500.390625 0)"/>
      <use xlink:href="#ArialMT-5f" transform="translate(556.005859 0)"/>
      <use xlink:href="#ArialMT-6d" transform="translate(611.621094 0)"/>
      <use xlink:href="#ArialMT-63" transform="translate(694.921875 0)"/>
      <use xlink:href="#ArialMT-65" transform="translate(744.921875 0)"/>
      <use xlink:href="#ArialMT-73" transform="translate(800.537109 0)"/>
     </g>
    </g>
    <g id="line2d_22">
     <path d="M 868.473438 82.212813
L 878.473438 82.212813
L 888.473438 82.212813
" style="fill: none; stroke: #36ada4; stroke-opacity: 0.7; stroke-width: 2; stroke-linecap: round"/>
     <g>
      <use xlink:href="#m689e023153" x="878.473438" y="82.212813" style="fill: #36ada4; fill-opacity: 0.7; stroke: #36ada4; stroke-opacity: 0.7; stroke-linejoin: miter"/>
     </g>
    </g>
    <g id="text_19">
     <!-- bruteforce -->
     <g style="fill: #262626" transform="translate(896.473438 85.712813) scale(0.1 -0.1)">
      <use xlink:href="#ArialMT-62"/>
      <use xlink:href="#ArialMT-72" transform="translate(55.615234 0)"/>
      <use xlink:href="#ArialMT-75" transform="translate(88.916016 0)"/>
      <use xlink:href="#ArialMT-74" transform="translate(144.53125 0)"/>
      <use xlink:href="#ArialMT-65" transform="translate(172.314453 0)"/>
      <use xlink:href="#ArialMT-66" transform="translate(227.929688 0)"/>
      <use xlink:href="#ArialMT-6f" transform="translate(255.712891 0)"/>
      <use xlink:href="#ArialMT-72" transform="translate(311.328125 0)"/>
      <use xlink:href="#ArialMT-63" transform="translate(344.628906 0)"/>
      <use xlink:href="#ArialMT-65" transform="translate(394.628906 0)"/>
     </g>
    </g>
    <g id="line2d_23">
     <path d="M 868.473438 96.358125
L 878.473438 96.358125
L 888.473438 96.358125
" style="fill: none; stroke: #3ba3ec; stroke-opacity: 0.7; stroke-width: 2; stroke-linecap: round"/>
     <g>
      <use xlink:href="#mc8ce07ebc5" x="878.473438" y="96.358125" style="fill: #3ba3ec; fill-opacity: 0.7; stroke: #3ba3ec; stroke-opacity: 0.7; stroke-linejoin: miter"/>
     </g>
    </g>
    <g id="text_20">
     <!-- simulated_annealing -->
     <g style="fill: #262626" transform="translate(896.473438 99.858125) scale(0.1 -0.1)">
      <defs>
       <path id="ArialMT-69" d="M 425 3934
L 425 4581
L 988 4581
L 988 3934
L 425 3934
z
M 425 0
L 425 3319
L 988 3319
L 988 0
L 425 0
z
" transform="scale(0.015625)"/>
       <path id="ArialMT-6c" d="M 409 0
L 409 4581
L 972 4581
L 972 0
L 409 0
z
" transform="scale(0.015625)"/>
      </defs>
      <use xlink:href="#ArialMT-73"/>
      <use xlink:href="#ArialMT-69" transform="translate(50 0)"/>
      <use xlink:href="#ArialMT-6d" transform="translate(72.216797 0)"/>
      <use xlink:href="#ArialMT-75" transform="translate(155.517578 0)"/>
      <use xlink:href="#ArialMT-6c" transform="translate(211.132812 0)"/>
      <use xlink:href="#ArialMT-61" transform="translate(233.349609 0)"/>
      <use xlink:href="#ArialMT-74" transform="translate(288.964844 0)"/>
      <use xlink:href="#ArialMT-65" transform="translate(316.748047 0)"/>
      <use xlink:href="#ArialMT-64" transform="translate(372.363281 0)"/>
      <use xlink:href="#ArialMT-5f" transform="translate(427.978516 0)"/>
      <use xlink:href="#ArialMT-61" transform="translate(483.59375 0)"/>
      <use xlink:href="#ArialMT-6e" transform="translate(539.208984 0)"/>
      <use xlink:href="#ArialMT-6e" transform="translate(594.824219 0)"/>
      <use xlink:href="#ArialMT-65" transform="translate(650.439453 0)"/>
      <use xlink:href="#ArialMT-61" transform="translate(706.054688 0)"/>
      <use xlink:href="#ArialMT-6c" transform="translate(761.669922 0)"/>
      <use xlink:href="#ArialMT-69" transform="translate(783.886719 0)"/>
      <use xlink:href="#ArialMT-6e" transform="translate(806.103516 0)"/>
      <use xlink:href="#ArialMT-67" transform="translate(861.71875 0)"/>
     </g>
    </g>
    <g id="line2d_24">
     <path d="M 868.473438 110.650313
L 878.473438 110.650313
L 888.473438 110.650313
" style="fill: none; stroke: #e866f4; stroke-opacity: 0.7; stroke-width: 2; stroke-linecap: round"/>
     <g>
      <use xlink:href="#m98716d0892" x="878.473438" y="110.650313" style="fill: #e866f4; fill-opacity: 0.7; stroke: #e866f4; stroke-opacity: 0.7; stroke-linejoin: miter"/>
     </g>
    </g>
    <g id="text_21">
     <!-- ilp_r2 -->
     <g style="fill: #262626" transform="translate(896.473438 114.150313) scale(0.1 -0.1)">
      <use xlink:href="#ArialMT-69"/>
      <use xlink:href="#ArialMT-6c" transform="translate(22.216797 0)"/>
      <use xlink:href="#ArialMT-70" transform="translate(44.433594 0)"/>
      <use xlink:href="#ArialMT-5f" transform="translate(100.048828 0)"/>
      <use xlink:href="#ArialMT-72" transform="translate(155.664062 0)"/>
      <use xlink:href="#ArialMT-32" transform="translate(188.964844 0)"/>
     </g>
    </g>
   </g>
  </g>
 </g>
 <defs>
  <clipPath id="pb81340c524">
   <rect x="48.206158" y="26.88" width="948.993842" height="507.16"/>
  </clipPath>
 </defs>
</svg>
